<?xml version="1.0" encoding="utf-8"?>
<!-- Generator: Adobe Illustrator 21.0.0, SVG Export Plug-In . SVG Version: 6.00 Build 0)  -->
<svg version="1.1" id="Layer_1" xmlns="http://www.w3.org/2000/svg" xmlns:xlink="http://www.w3.org/1999/xlink" x="0px" y="0px"
	 viewBox="0 0 33.5 35" style="enable-background:new 0 0 33.5 35;" xml:space="preserve">
<style type="text/css">
	.st0{fill:#E57E70;}
</style>
<g>
	<path class="st0" d="M0.1,32.4c0-0.1,0-0.2,0-0.3c0-0.9,2.1-0.3,2.1-2c0-0.3-0.1-0.5-0.1-0.8c0-0.8,0.1-1.5,0.1-1.8
		c0-1.1-0.1-0.9-0.1-1.3c0-0.1,0.1-0.8,0.1-1.1V12.5c0-0.1-0.1-0.5-0.1-0.5c0-1.5,0.1-3,0.1-4.1c0-0.4,0-0.9,0-1.3c0,0,0-0.9,0-1.1
		c0-2.6-1.7-0.8-2.1-2.6V1.3C0.2,0.5,1.2,0.4,2,0.4c0.5,0,1.6,0.1,2.1,0.1c0.3,0,2.7-0.3,3.6-0.3c0,0,0.1,0,0.1,0.1
		C8.3,0.1,9,0.2,9.6,0.2c0.2,0,0.7,0.2,0.7,0.4c0.1,0,0.3-0.6,0.9-0.6c0.5,0,1.4,0.4,1.4,0.9c0,0.4-0.1,0.6-0.4,0.9
		c0,1.5,0.6,1.9-0.6,1.9c-1,0-0.9,1-1.1,1.2v4.2c0,0.1-0.1,0.4-0.1,0.5c0.1,0.1,0.1,0.3,0.1,0.4v2.5l0,0.2c0,0.4,0,0.8,0,1.1
		c0,1.3,0,1.1-0.4,1.5c0.4,0,0.4,0.8,0.5,1.1c0,0.1-0.1,0.3-0.1,0.4v2.1c0,0-0.1,0.2-0.1,0.3c0.1,0.2,0.2,0.4,0.2,0.5v3.2
		c0,0.4-0.1,0.7-0.1,1.1c0,0.2,0.1,0.4,0.1,0.7c0,0.2-0.1,0.5-0.1,0.5c0,0.2,0,0.3,0,0.4c0,0,0,0-0.1,0.1c0.1,0.1,0.2,0.4,0.2,0.5
		v3.2c0,0.8-0.6,0.4-0.6,0.7c0,0.2,0.4,0.3,0.7,0.7c2.1,0.9,1.5,1.7,1.9,2.6c0,0.8-0.2,1.8-1.3,1.8c-0.4,0-1-0.2-1.5-0.2h-6
		c-1.1,0-2.7,0.1-2.8,0.1c-0.2,0-0.8,0-1-0.5C0,33.7,0.1,33.2,0.1,32.4z M3.2,11.7c0,0.1,0,0.1,0,0.1c0.1,0,0.1,0,0.1-0.1
		C3.3,11.7,3.3,11.6,3.2,11.7L3.2,11.7z M3.6,17.2c0,0.1,0.1,0.1,0.1,0.1c0,0,0.1,0,0.1-0.1C3.8,17.2,3.7,17.2,3.6,17.2L3.6,17.2z
		 M4,17.6l0.3,0L4,17.3V17.6z M4.4,21.6c0-0.1-0.1-0.1-0.2-0.1c0,0-0.1,0-0.1,0.1C4.1,21.6,4.3,21.6,4.4,21.6z M4.2,30.8
		c0,0.1,0,0.1,0,0.1c0.1,0,0.1,0,0.1-0.1C4.3,30.8,4.3,30.7,4.2,30.8L4.2,30.8z M4.6,17.7c0.1,0,0.2,0,0.2-0.1l-0.2,0V17.7z
		 M4.7,27.6c0,0,0.1,0.1,0.1,0.1c0,0,0.1-0.1,0.1-0.1C4.9,27.6,4.8,27.6,4.7,27.6L4.7,27.6z M5,28.2C5,28,4.9,28,4.9,28
		c-0.1,0-0.1,0-0.1,0C4.8,28.1,4.9,28.2,5,28.2z M5.1,20.9c0,0.1,0,0.1,0.1,0.1c0,0,0,0,0-0.1C5.2,20.9,5.2,20.9,5.1,20.9
		C5.1,20.9,5.1,20.9,5.1,20.9z M5.1,26.9C5.1,26.9,5.2,27,5.1,26.9c0.1,0.1,0.1,0,0.1,0c0-0.1-0.1-0.1-0.1-0.1
		C5.2,26.8,5.1,26.8,5.1,26.9z M5.4,29.1l0.1-0.6l-0.1-0.1c0,0-0.1,0.1-0.2,0.1l0,0c0,0.2-0.1,0.4-0.1,0.5v0
		C5.3,29.1,5.4,29.1,5.4,29.1z M5.7,10.2h0.1l0.4-0.4c0.4,0,0.2,0,0.4,0c0,0,0.1,0,0.1-0.1c0,0-0.4-0.5-0.5-0.5c0,0-0.1,0-0.1,0
		c0,0.1-0.4,0.1-0.4,0.1c-0.1,0-0.1-0.2-0.1-0.3c-0.2,0-0.3,0.1-0.3,0.3c0,0.2,0.5,0.5,0.5,0.6l-0.1,0.1h0.1L5.7,10.2z M5.3,30.9
		c0.1-0.2,0.5-0.1,0.5-0.5C5.6,30.5,5.3,30.7,5.3,30.9z M5.7,31.3c0.1-0.1,0.4-0.2,0.5-0.5C5.7,30.9,5.7,30.9,5.7,31.3z M5.8,22.8
		c0,0.1,0,0.1,0,0.1c0.1,0,0.1,0,0.1-0.1C5.9,22.8,5.9,22.7,5.8,22.8C5.8,22.7,5.8,22.8,5.8,22.8z M6,27.3c0.1,0,0.2,0,0.2-0.1
		c0,0,0-0.2,0-0.3c-0.1,0-0.2,0.1-0.2,0.2L6,27.3z M6.2,32.4C6.2,32.5,6.2,32.5,6.2,32.4c0.1,0.1,0.1,0,0.1,0c0-0.1-0.1-0.1-0.1-0.1
		S6.2,32.4,6.2,32.4z M6.4,11.2c0.1-0.1,0.1-0.1,0.1-0.2C6.3,10.9,6.4,11.1,6.4,11.2z M6.7,17c0.1-0.1,0.1,0,0.1-0.2l-0.2,0.1
		L6.7,17z M6.6,29.2c0,0.1,0,0.1,0,0.1c0.1,0,0.1,0,0.1-0.1C6.7,29.2,6.7,29.1,6.6,29.2C6.6,29.1,6.6,29.2,6.6,29.2z M6.9,4.8
		c0.1,0,0.2-0.1,0.2-0.3c0-0.1,0-0.4-0.1-0.4v0.5H6.7C6.7,4.7,6.9,4.6,6.9,4.8z M6.7,4.9C6.7,5,6.7,5,6.7,5c0,0,0.1,0,0.1-0.1
		c0,0,0-0.1-0.1-0.1C6.7,4.8,6.7,4.9,6.7,4.9z M6.9,12.2c0,0,0-0.2-0.1-0.2l-0.1,0C6.7,12.2,6.8,12.2,6.9,12.2z M6.7,16.6H7
		l-0.1-0.1C6.8,16.5,6.7,16.6,6.7,16.6z M6.8,21.9c0,0-0.1,0-0.1,0.1c0,0,0,0,0.1,0c0.1,0,0.1,0,0.1,0C6.9,21.9,6.9,21.9,6.8,21.9z
		 M7.1,23.2c0.2,0,0.2-0.2,0.2-0.4s0-0.2,0-0.3c-0.1,0-0.2,0.1-0.3,0.3l-0.2-0.1v0.1C6.7,23.1,6.8,23.2,7.1,23.2z M6.8,11.2
		c0,0.1,0,0.1,0,0.1c0.1,0,0.1,0,0.1-0.1C6.9,11.2,6.9,11.2,6.8,11.2C6.8,11.2,6.8,11.2,6.8,11.2z M6.9,6.3C6.9,6.4,7,6.4,6.9,6.3
		c0.1,0.1,0.1,0,0.1,0C7.1,6.3,7,6.3,6.9,6.3L6.9,6.3z M7.1,26c0,0.1,0.1,0.1,0.1,0.1c0,0,0.1,0,0.1-0.1C7.2,26,7.2,25.9,7.1,26
		L7.1,26z M7.6,20.2c0-0.4,0.1-0.5,0.4-0.5v0c-0.1,0-0.2-0.1-0.2-0.2l-0.2,0.3c-0.1-0.1-0.2-0.2-0.3-0.3c-0.1,0-0.1,0-0.1,0
		C7.4,19.6,7.4,20.2,7.6,20.2z M7.1,25.4c0.3,0,0.3,0,0.3-0.2C7.3,25.2,7.2,25.3,7.1,25.4z M7.2,25.8c0,0,0.1-0.1,0.1-0.2
		C7.3,25.6,7.2,25.6,7.2,25.8z M7.5,27.3c0.1,0,0.1,0,0.1-0.1H7.4C7.4,27.3,7.4,27.3,7.5,27.3z M7.5,3.7c0,0,0,0.1,0,0.1
		c0.1,0,0.1-0.1,0.1-0.1s0-0.1-0.1-0.1C7.5,3.6,7.5,3.6,7.5,3.7z M7.8,4.3l-0.1,0l0.1-0.1C7.7,4,7.5,4.1,7.5,4.1
		C7.5,4.3,7.7,4.3,7.8,4.3z M7.6,6.3V6L7.5,6.2L7.6,6.3z M7.8,6.1L8.4,6c0,0,0.1-0.1,0.1-0.1c0-0.2-0.5-0.1-0.2-0.2
		c0,0-0.1,0.2-0.2,0.2c-0.1,0-0.2,0-0.2,0C7.8,6,7.8,6.1,7.8,6.1z M7.8,24.8H8v-0.1L7.8,24.8z M8.2,3c0.5,0,0.3-0.6,0.6-0.6
		c0.1,0,0.1,0,0.1,0L8.9,2.2c-0.4,0-0.8,0.4-0.8,0.4l0.1,0C8.1,2.7,8,2.7,7.9,2.7C7.9,2.9,8.2,3,8.2,3z M8.2,25.4c0.2,0,0.1,0,0.1,0
		C8.4,25.2,8.2,25,8,25C8.1,25.2,8.2,25.2,8.2,25.4z M8,26c0,0.1,0,0.1,0.1,0.1c0,0,0.1,0,0.1-0.1C8.2,26,8.1,25.9,8,26
		C8,25.9,8,26,8,26z M8.2,24.9c0.2,0,0.1-0.3,0.1-0.2C8.2,24.8,8.2,24.8,8.2,24.9z M8.3,24c0,0.1,0,0.1,0.1,0.1c0,0,0,0,0-0.1
		C8.4,24,8.4,24,8.3,24C8.3,24,8.3,24,8.3,24z M8.5,7.7c0-0.1,0-0.2-0.1-0.2C8.3,7.6,8.4,7.7,8.5,7.7z M8.3,21.1c0,0.1,0,0.1,0,0.1
		c0,0,0.1,0,0.1-0.1C8.5,21.1,8.4,21,8.3,21.1L8.3,21.1z M8.8,26.8c0-0.2-0.1-0.1-0.1-0.4c-0.1,0-0.1,0.1-0.1,0.2
		C8.5,26.8,8.7,26.8,8.8,26.8z M9.2,25.5c0-0.2-0.1-0.2-0.2-0.2c0.2,0,0.3-0.2,0.3-0.4c0-0.1,0-0.2-0.2-0.2l-0.1,0.1
		c-0.1,0-0.1-0.1-0.1-0.2c-0.2,0-0.4,0.4-0.4,0.5C8.7,25.2,8.5,25.5,9.2,25.5z M8.8,4.1C8.8,4,8.9,4,8.9,3.8L8.6,3.9
		C8.6,4,8.7,4.1,8.8,4.1z M8.8,4.9c0,0.1,0,0.2,0,0.2l0.1-0.4C8.9,4.8,8.8,4.9,8.8,4.9z M8.9,25c0,0.1,0,0.1-0.1,0.1c0,0,0,0,0-0.1
		C8.8,25,8.8,24.9,8.9,25C8.9,24.9,8.9,25,8.9,25z M9,22.7l0.2-0.3C9,22.4,9,22.7,9,22.7z M9.3,22.4c0,0,0,0.1,0,0.1l0,0.1
		c0.1,0,0.1-0.1,0.1-0.1C9.3,22.5,9.3,22.4,9.3,22.4z M10,15.7v-0.2H9.9C9.9,15.6,9.9,15.7,10,15.7z M10.3,25.3v-0.1h-0.1
		C10.1,25.2,10.2,25.3,10.3,25.3z"/>
	<path class="st0" d="M30,34.9c-0.4,0-1.1-0.1-1.4-0.1c0,0-0.5,0.1-0.8,0.1c0,0-0.5-0.1-0.5-0.1h-6.2c-0.1,0-0.7,0.1-0.7,0.1
		c0,0-0.1-0.1-0.7-0.1h-3.4c-1-0.4-0.8-1.1-0.8-1.8c0-0.5,0-1,0.5-1.2c1.5,0,1.5-1.5,1.5-2.5c0-1.1,0-2.5,0-3.6c0-1,0.2-2.9,0.2-3.4
		c0-2.4-0.1-3.9-0.1-4.8c0-0.8,0-1.3,0.2-1.7v-5.9c0-0.1-0.1-0.3-0.1-0.8c0-0.6,0.2-3,0.2-4.6c0-1.1-1.8-0.5-1.8-1.8V0.8
		C16.1,0.2,16.6,0,17,0c1.5,0,3.7,0.3,4.2,0.3c0.4,0,0.7-0.1,1.1-0.1c0.2,0,0.4,0,0.8,0.1h3.3c0.5,0,1-0.1,1.5-0.1
		c0.6,0,0.6,0.3,0.6,0.8c0,0.3,0,0.6,0,0.9c0,0.2,0,0.4,0.2,0.5c-0.5,1.2-0.4,1.3-1.3,1.6c-0.7,0-1.1,1.1-1,1c0,1.2,0.1,1.9,0.1,2.9
		c0,0.6,0,1.2-0.2,1.7c0,4.4-0.1,4.7-0.1,4.8c0,2.7,0.1,5.1,0.1,6.3c-0.1,0.5-0.3,3.8-0.3,4c0,0.1,0.1,0.3,0.1,0.5
		c0,5.1-0.2,3.7-0.2,6.1c0,0.2,0.1,0.5,0.1,0.8c0,0.1,0,0.2-0.1,0.4h1.4c0.5-0.2,1.2-0.4,1.2-1.1c0-0.9,0.8-1.5,0.8-2.1
		c1-2.5,0.1-2.8,3.1-2.8c1.1,0,1.2,0.1,1.2,1c0,0.1-0.6,2.7-1,5.3c-0.4,0.7,0.1,2.3-1,2.6c-0.3,0-0.6-0.1-0.8-0.1
		C30.5,34.8,30.3,34.9,30,34.9z M30.4,30.4c0.2,0,1,0.5,1,0.8c0,0.1-0.1,0.2-0.5,0.2c0-0.2-0.5-0.8-0.6-0.9
		C30.3,30.5,30.3,30.4,30.4,30.4z"/>
</g>
</svg>
